<?xml version="1.0" encoding="UTF-8"?>
<!DOCTYPE svg PUBLIC "-//W3C//DTD SVG 1.1//EN" "http://www.w3.org/Graphics/SVG/1.1/DTD/svg11.dtd">
<svg version="1.1" xmlns="http://www.w3.org/2000/svg" xmlns:xlink="http://www.w3.org/1999/xlink" x="0" y="0" width="904.857" height="202.279" viewBox="0, 0, 904.857, 202.279">
  <g id="Porte" transform="translate(-194.59, -253.591)">
    <path d="M213.709,381.146 L237.228,404.511" fill-opacity="0" stroke="#FFF300" stroke-width="8"/>
    <path d="M212.09,369.337 L230.597,351.15" fill-opacity="0" stroke="#FFF300" stroke-width="8"/>
    <path d="M295.791,354.543 L319.709,330.715" fill-opacity="0" stroke="#FFF300" stroke-width="8"/>
    <path d="M367.604,296.61 L391.776,321.097" fill-opacity="0" stroke="#FFF300" stroke-width="8"/>
    <path d="M486.143,319.564 L522.161,319.564" fill-opacity="0" stroke="#FFF300" stroke-width="8"/>
    <path d="M535.378,319.564 L560.822,319.564" fill-opacity="0" stroke="#FFF300" stroke-width="8"/>
    <path d="M584.021,271.091 L584.021,308.1" fill-opacity="0" stroke="#FFF300" stroke-width="8"/>
    <path d="M527.753,394.013 L527.753,419.787" fill-opacity="0" stroke="#FFF300" stroke-width="8"/>
    <path d="M710.745,271.091 L710.745,308.1" fill-opacity="0" stroke="#FFF300" stroke-width="8"/>
    <path d="M732.731,319.564 L757.493,319.564" fill-opacity="0" stroke="#FFF300" stroke-width="8"/>
    <path d="M771.666,319.564 L807.015,319.564" fill-opacity="0" stroke="#FFF300" stroke-width="8"/>
    <path d="M764.321,418.853 L764.321,395.145" fill-opacity="0" stroke="#FFF300" stroke-width="8"/>
    <path d="M902.576,319.564 L924.953,298.328" fill-opacity="0" stroke="#FFF300" stroke-width="8"/>
    <path d="M975.131,330.715 L999.881,355.397" fill-opacity="0" stroke="#FFF300" stroke-width="8"/>
    <path d="M1064.639,351.15 L1082.947,369.337" fill-opacity="0" stroke="#FFF300" stroke-width="8"/>
    <path d="M1055.824,404.511 L1079.218,381.146" fill-opacity="0" stroke="#FFF300" stroke-width="8"/>
    <path d="M1044.635,415.976 L1022.805,439.37" fill-opacity="0" stroke="#FFF300" stroke-width="8"/>
    <path d="M248.058,415.976 L271.838,439.37" fill-opacity="0" stroke="#FFF300" stroke-width="8"/>
  </g>
</svg>
