<?xml version="1.0" encoding="UTF-8"?>
<!DOCTYPE svg PUBLIC "-//W3C//DTD SVG 1.1//EN" "http://www.w3.org/Graphics/SVG/1.1/DTD/svg11.dtd">
<svg version="1.1" xmlns="http://www.w3.org/2000/svg" xmlns:xlink="http://www.w3.org/1999/xlink" x="0" y="0" width="1305.812" height="666.059" viewBox="0, 0, 1305.812, 666.059">
  <g id="Finestre" transform="translate(-1.601, -87.144)">
    <path d="M787.751,543.846 L740.178,543.846" fill-opacity="0" stroke="#E800FF" stroke-width="8"/>
    <path d="M566.227,543.846 L522.921,543.846" fill-opacity="0" stroke="#E800FF" stroke-width="8"/>
    <path d="M1152.512,226.848 L1134.785,209.164" fill-opacity="0" stroke="#E800FF" stroke-width="25"/>
    <path d="M1187.432,261.444 L1170.841,245.028" fill-opacity="0" stroke="#E800FF" stroke-width="25"/>
    <path d="M175.05,209.164 L156.496,227.721" fill-opacity="0" stroke="#E800FF" stroke-width="25"/>
    <path d="M122.099,262.248 L138.748,245.549" fill-opacity="0" stroke="#E800FF" stroke-width="25"/>
    <path d="M1258.913,391.59 L1212.776,437.148" fill-opacity="0" stroke="#E800FF" stroke-width="25"/>
    <path d="M1170.155,479.202 L1151.128,498.01" fill-opacity="0" stroke="#E800FF" stroke-width="25"/>
    <path d="M1107.849,540.839 L1060.384,587.657" fill-opacity="0" stroke="#E800FF" stroke-width="25"/>
    <path d="M867.218,704.515 L720.538,704.515" fill-opacity="0" stroke="#E800FF" stroke-width="25"/>
    <path d="M587.449,704.703 L442.422,704.703" fill-opacity="0" stroke="#E800FF" stroke-width="25"/>
    <path d="M310.692,651.465 L284.526,625.164" fill-opacity="0" stroke="#E800FF" stroke-width="25"/>
    <path d="M1021.964,625.585 L995.773,651.465" fill-opacity="0" stroke="#E800FF" stroke-width="25"/>
    <path d="M248.133,588.696 L200.537,540.839" fill-opacity="0" stroke="#E800FF" stroke-width="25"/>
    <path d="M157.803,498.01 L139.217,479.399" fill-opacity="0" stroke="#E800FF" stroke-width="25"/>
    <path d="M96.91,437.009 L51.101,390.821" fill-opacity="0" stroke="#E800FF" stroke-width="25"/>
    <path d="M349.182,183.614 L302.449,136.644" fill-opacity="0" stroke="#E800FF" stroke-width="25"/>
    <path d="M441.169,276.298 L394.967,229.727" fill-opacity="0" stroke="#E800FF" stroke-width="25"/>
    <path d="M912.294,231.247 L867.431,276.664" fill-opacity="0" stroke="#E800FF" stroke-width="25"/>
    <path d="M959.719,183.614 L1004.475,138.249" fill-opacity="0" stroke="#D700FF" stroke-width="24"/>
  </g>
</svg>
