<?xml version="1.0" encoding="UTF-8"?>
<!DOCTYPE svg PUBLIC "-//W3C//DTD SVG 1.1//EN" "http://www.w3.org/Graphics/SVG/1.1/DTD/svg11.dtd">
<svg version="1.1" xmlns="http://www.w3.org/2000/svg" xmlns:xlink="http://www.w3.org/1999/xlink" x="0" y="0" width="904.29" height="201.894" viewBox="0, 0, 904.29, 201.894">
  <g id="Porte" transform="translate(-200.794, -292.515)">
    <path d="M1087.156,368.109 L1063.692,344.649" fill-opacity="0" stroke="#FFF300" stroke-width="8"/>
    <path d="M1088.584,379.291 L1070.198,397.85" fill-opacity="0" stroke="#FFF300" stroke-width="8"/>
    <path d="M1005.361,394.457 L982.551,417.781" fill-opacity="0" stroke="#FFF300" stroke-width="8"/>
    <path d="M933.396,452.39 L909.224,427.903" fill-opacity="0" stroke="#FFF300" stroke-width="8"/>
    <path d="M814.857,429.436 L778.839,429.436" fill-opacity="0" stroke="#FFF300" stroke-width="8"/>
    <path d="M765.622,429.436 L740.178,429.436" fill-opacity="0" stroke="#FFF300" stroke-width="8"/>
    <path d="M716.979,477.909 L716.979,440.9" fill-opacity="0" stroke="#FFF300" stroke-width="8"/>
    <path d="M773.247,354.987 L773.247,329.213" fill-opacity="0" stroke="#FFF300" stroke-width="8"/>
    <path d="M590.255,477.909 L590.255,440.9" fill-opacity="0" stroke="#FFF300" stroke-width="8"/>
    <path d="M568.269,429.436 L543.507,429.436" fill-opacity="0" stroke="#FFF300" stroke-width="8"/>
    <path d="M529.334,429.436 L493.985,429.436" fill-opacity="0" stroke="#FFF300" stroke-width="8"/>
    <path d="M536.679,330.147 L536.679,353.855" fill-opacity="0" stroke="#FFF300" stroke-width="8"/>
    <path d="M398.881,429.549 L376.448,450.765" fill-opacity="0" stroke="#FFF300" stroke-width="8"/>
    <path d="M326.229,417.781 L301.298,392.962" fill-opacity="0" stroke="#FFF300" stroke-width="8"/>
    <path d="M236.519,397.85 L218.294,379.663" fill-opacity="0" stroke="#FFF300" stroke-width="8"/>
    <path d="M244.756,344.226 L221.362,367.591" fill-opacity="0" stroke="#FFF300" stroke-width="8"/>
    <path d="M255.952,333.024 L278.744,310.015" fill-opacity="0" stroke="#FFF300" stroke-width="8"/>
    <path d="M1052.555,333.409 L1028.775,310.015" fill-opacity="0" stroke="#FFF300" stroke-width="8"/>
  </g>
</svg>
