<?xml version="1.0" encoding="UTF-8"?>
<!DOCTYPE svg PUBLIC "-//W3C//DTD SVG 1.1//EN" "http://www.w3.org/Graphics/SVG/1.1/DTD/svg11.dtd">
<svg version="1.1" xmlns="http://www.w3.org/2000/svg" xmlns:xlink="http://www.w3.org/1999/xlink" x="0" y="0" width="1077.82" height="510.906" viewBox="0, 0, 1077.82, 510.906">
  <g id="Strutture_interne" transform="translate(-115.054, -202.109)">
    <path d="M716.946,416.154 L716.979,315.953" fill-opacity="0" stroke="#3900FF" stroke-width="5"/>
    <path d="M773.247,362 L716.979,362" fill-opacity="0" stroke="#3900FF" stroke-width="5"/>
    <path d="M773.247,429.436 L773.247,357.84" fill-opacity="0" stroke="#3900FF" stroke-width="5"/>
    <path d="M777.052,429.359 L716.979,429.436" fill-opacity="0" stroke="#3900FF" stroke-width="5"/>
    <path d="M890.081,429.436 L777.052,429.359" fill-opacity="0" stroke="#3900FF" stroke-width="5"/>
    <path d="M1184.374,465.128 L931.093,212.322" fill-opacity="0" stroke="#3900FF" stroke-width="5"/>
    <path d="M716.979,543.846 L716.979,429.436" fill-opacity="0" stroke="#3900FF" stroke-width="5"/>
    <path d="M1020.129,300.866 L890.08,429.436" fill-opacity="0" stroke="#3900FF" stroke-width="5"/>
    <path d="M1135.339,513.609 L1010.316,389.42" fill-opacity="0" stroke="#3900FF" stroke-width="5"/>
    <path d="M1008.386,391.476 L916.843,485.143" fill-opacity="0" stroke="#3900FF" stroke-width="5"/>
    <path d="M1034.438,613.344 L909.656,492.906" fill-opacity="0" stroke="#3900FF" stroke-width="5"/>
    <path d="M859.862,543.846 L904.382,498.649" fill-opacity="0" stroke="#3900FF" stroke-width="5"/>
    <path d="M451.364,543.846 L859.862,543.846" fill-opacity="0" stroke="#3900FF" stroke-width="5"/>
    <path d="M716.979,489.026 L590.255,488.591" fill-opacity="0" stroke="#3900FF" stroke-width="5"/>
    <path d="M590.255,543.846 L590.255,429.436" fill-opacity="0" stroke="#3900FF" stroke-width="5"/>
    <path d="M590.255,429.436 L418.685,429.436" fill-opacity="0" stroke="#3900FF" stroke-width="5"/>
    <path d="M124.554,464.644 L377.025,211.609" fill-opacity="0" stroke="#3900FF" stroke-width="5"/>
    <path d="M418.685,429.436 L288.48,300.866" fill-opacity="0" stroke="#3900FF" stroke-width="5"/>
    <path d="M451.364,543.846 L395.053,486.078" fill-opacity="0" stroke="#3900FF" stroke-width="5"/>
    <path d="M395.053,486.078 L297.936,389.67" fill-opacity="0" stroke="#3900FF" stroke-width="5"/>
    <path d="M400.062,491.188 L274.079,614.744" fill-opacity="0" stroke="#3900FF" stroke-width="5"/>
    <path d="M173.328,513.609 L297.936,389.67" fill-opacity="0" stroke="#3900FF" stroke-width="5"/>
    <path d="M262.327,423.571 L213.884,375.158" fill-opacity="0" stroke="#3900FF" stroke-width="5"/>
    <path d="M249.779,339.467 L156.198,245.028" fill-opacity="0" stroke="#3900FF" stroke-width="5"/>
    <path d="M653.387,704.515 L653.215,543.846" fill-opacity="0" stroke="#3900FF" stroke-width="5"/>
    <path d="M1093.47,374.361 L1044.728,423.543" fill-opacity="0" stroke="#3900FF" stroke-width="5"/>
    <path d="M1152.145,245.028 L1058.658,339.467" fill-opacity="0" stroke="#3900FF" stroke-width="5"/>
    <path d="M773.247,291.439 L773.247,357.84" fill-opacity="0" stroke="#3900FF" stroke-width="5"/>
    <path d="M590.255,416.154 L590.255,315.953" fill-opacity="0" stroke="#3900FF" stroke-width="5"/>
    <path d="M536.679,291.703 L536.679,429.436" fill-opacity="0" stroke="#3900FF" stroke-width="5"/>
    <path d="M590.255,362 L536.679,362" fill-opacity="0" stroke="#3900FF" stroke-width="5"/>
    <path d="M941.182,460.216 L900.444,419.128" fill-opacity="0" stroke="#3900FF" stroke-width="5"/>
    <path d="M409.051,419.907 L367.782,459.021" fill-opacity="0" stroke="#3900FF" stroke-width="5"/>
  </g>
</svg>
