<?xml version="1.0" encoding="UTF-8"?>
<!DOCTYPE svg PUBLIC "-//W3C//DTD SVG 1.1//EN" "http://www.w3.org/Graphics/SVG/1.1/DTD/svg11.dtd">
<svg version="1.1" xmlns="http://www.w3.org/2000/svg" xmlns:xlink="http://www.w3.org/1999/xlink" x="0" y="0" width="1305.772" height="665.529" viewBox="0, 0, 1305.772, 665.529">
  <g id="Finestre" transform="translate(6.791, 6.758)">
    <path d="M513.249,205.154 L560.822,205.154" fill-opacity="0" stroke="#E800FF" stroke-width="8"/>
    <path d="M734.773,205.154 L778.079,205.154" fill-opacity="0" stroke="#E800FF" stroke-width="8"/>
    <path d="M148.855,521.552 L166.027,540.034" fill-opacity="0" stroke="#E800FF" stroke-width="25"/>
    <path d="M113.943,487.11 L129.904,503.972" fill-opacity="0" stroke="#E800FF" stroke-width="25"/>
    <path d="M1127.194,540.034 L1144.802,521.552" fill-opacity="0" stroke="#E800FF" stroke-width="25"/>
    <path d="M1179.41,487.11 L1162.987,503.972" fill-opacity="0" stroke="#E800FF" stroke-width="25"/>
    <path d="M42.709,357.524 L87.833,311.336" fill-opacity="0" stroke="#E800FF" stroke-width="25"/>
    <path d="M129.904,268.898 L148.855,249.893" fill-opacity="0" stroke="#E800FF" stroke-width="25"/>
    <path d="M192.585,207.614 L240.587,161.46" fill-opacity="0" stroke="#E800FF" stroke-width="25"/>
    <path d="M433.782,42.742 L580.462,42.742" fill-opacity="0" stroke="#E800FF" stroke-width="25"/>
    <path d="M713.67,42.742 L858.697,42.742" fill-opacity="0" stroke="#E800FF" stroke-width="25"/>
    <path d="M990.308,97.535 L1016.887,123.32" fill-opacity="0" stroke="#E800FF" stroke-width="25"/>
    <path d="M277.093,123.32 L303.669,97.535" fill-opacity="0" stroke="#E800FF" stroke-width="25"/>
    <path d="M1052.38,161.46 L1100.901,207.614" fill-opacity="0" stroke="#E800FF" stroke-width="25"/>
    <path d="M1144.802,249.893 L1162.987,268.898" fill-opacity="0" stroke="#E800FF" stroke-width="25"/>
    <path d="M1204.673,311.336 L1250.482,357.524" fill-opacity="0" stroke="#E800FF" stroke-width="25"/>
    <path d="M951.818,565.386 L999.881,610.271" fill-opacity="0" stroke="#E800FF" stroke-width="25"/>
    <path d="M858.697,472.702 L908.202,516.421" fill-opacity="0" stroke="#E800FF" stroke-width="25"/>
    <path d="M387.389,516.421 L433.782,472.702" fill-opacity="0" stroke="#E800FF" stroke-width="25"/>
    <path d="M341.5,565.386 L295.791,610.271" fill-opacity="0" stroke="#00E3FF" stroke-width="3"/>
    <path d="M96.158,87.762 L97.137,296.61" fill-opacity="0" stroke="#00E3FF" stroke-width="3"/>
    <path d="M308.673,87.762 L96.158,87.762" fill-opacity="0" stroke="#00E3FF" stroke-width="3"/>
    <path d="M96.158,472.702 L96.158,554.904" fill-opacity="0" stroke="#00E3FF" stroke-width="3"/>
    <path d="M96.158,554.904 L176.463,554.904" fill-opacity="0" stroke="#00E3FF" stroke-width="3"/>
    <path d="M513.249,466.138 L513.249,548.656" fill-opacity="0" stroke="#00E3FF" stroke-width="3"/>
    <path d="M513.249,548.656 L362.284,548.656" fill-opacity="0" stroke="#00E3FF" stroke-width="3"/>
    <path d="M778.079,466.138 L778.079,548.656" fill-opacity="0" stroke="#00E3FF" stroke-width="3"/>
    <path d="M778.079,548.656 L927.512,548.656" fill-opacity="0" stroke="#00E3FF" stroke-width="3"/>
    <path d="M1195.719,477.569 L1196.198,554.904" fill-opacity="0" stroke="#00E3FF" stroke-width="3"/>
    <path d="M1196.198,554.904 L1119.62,554.904" fill-opacity="0" stroke="#00E3FF" stroke-width="3"/>
    <path d="M990.308,87.762 L1195.719,87.762" fill-opacity="0" stroke="#00E3FF" stroke-width="3"/>
    <path d="M1195.719,87.762 L1196.198,294.261" fill-opacity="0" stroke="#00E3FF" stroke-width="10"/>
  </g>
</svg>
