<?xml version="1.0" encoding="UTF-8"?>
<!DOCTYPE svg PUBLIC "-//W3C//DTD SVG 1.1//EN" "http://www.w3.org/Graphics/SVG/1.1/DTD/svg11.dtd">
<svg version="1.1" xmlns="http://www.w3.org/2000/svg" xmlns:xlink="http://www.w3.org/1999/xlink" x="0" y="0" width="1077.82" height="510.906" viewBox="0, 0, 1077.82, 510.906">
  <g id="Strutture_interne" transform="translate(-107.126, -34.985)">
    <path d="M584.054,332.846 L584.021,433.047" fill-opacity="0" stroke="#3900FF" stroke-width="5"/>
    <path d="M527.753,387 L584.021,387" fill-opacity="0" stroke="#3900FF" stroke-width="5"/>
    <path d="M527.753,319.564 L527.753,391.16" fill-opacity="0" stroke="#3900FF" stroke-width="5"/>
    <path d="M523.948,319.641 L584.021,319.564" fill-opacity="0" stroke="#3900FF" stroke-width="5"/>
    <path d="M410.92,319.564 L523.948,319.641" fill-opacity="0" stroke="#3900FF" stroke-width="5"/>
    <path d="M116.626,283.872 L369.907,536.678" fill-opacity="0" stroke="#3900FF" stroke-width="5"/>
    <path d="M584.021,205.154 L584.021,319.564" fill-opacity="0" stroke="#3900FF" stroke-width="5"/>
    <path d="M280.871,448.134 L410.92,319.564" fill-opacity="0" stroke="#3900FF" stroke-width="5"/>
    <path d="M165.661,235.391 L290.684,359.58" fill-opacity="0" stroke="#3900FF" stroke-width="5"/>
    <path d="M292.614,357.524 L384.157,263.857" fill-opacity="0" stroke="#3900FF" stroke-width="5"/>
    <path d="M266.562,135.656 L391.344,256.094" fill-opacity="0" stroke="#3900FF" stroke-width="5"/>
    <path d="M441.138,205.154 L396.618,250.351" fill-opacity="0" stroke="#3900FF" stroke-width="5"/>
    <path d="M849.636,205.154 L441.138,205.154" fill-opacity="0" stroke="#3900FF" stroke-width="5"/>
    <path d="M584.021,259.974 L710.745,260.409" fill-opacity="0" stroke="#3900FF" stroke-width="5"/>
    <path d="M710.745,205.154 L710.745,319.564" fill-opacity="0" stroke="#3900FF" stroke-width="5"/>
    <path d="M710.745,319.564 L882.315,319.564" fill-opacity="0" stroke="#3900FF" stroke-width="5"/>
    <path d="M1176.446,284.356 L923.975,537.391" fill-opacity="0" stroke="#3900FF" stroke-width="5"/>
    <path d="M882.315,319.564 L1012.52,448.134" fill-opacity="0" stroke="#3900FF" stroke-width="5"/>
    <path d="M849.636,205.154 L905.947,262.922" fill-opacity="0" stroke="#3900FF" stroke-width="5"/>
    <path d="M905.947,262.922 L1003.064,359.33" fill-opacity="0" stroke="#3900FF" stroke-width="5"/>
    <path d="M900.938,257.812 L1026.921,134.256" fill-opacity="0" stroke="#3900FF" stroke-width="5"/>
    <path d="M1127.672,235.391 L1003.064,359.33" fill-opacity="0" stroke="#3900FF" stroke-width="5"/>
    <path d="M1037.937,324.649 L1086.38,373.061" fill-opacity="0" stroke="#3900FF" stroke-width="5"/>
    <path d="M1051.221,409.533 L1144.802,503.972" fill-opacity="0" stroke="#3900FF" stroke-width="5"/>
    <path d="M647.613,44.485 L647.785,205.154" fill-opacity="0" stroke="#3900FF" stroke-width="5"/>
    <path d="M208.273,373.842 L256.272,325.457" fill-opacity="0" stroke="#3900FF" stroke-width="5"/>
    <path d="M148.855,503.972 L242.342,409.533" fill-opacity="0" stroke="#3900FF" stroke-width="5"/>
    <path d="M527.753,457.561 L527.753,391.16" fill-opacity="0" stroke="#3900FF" stroke-width="5"/>
    <path d="M710.745,332.846 L710.745,433.047" fill-opacity="0" stroke="#3900FF" stroke-width="5"/>
    <path d="M764.321,457.297 L764.321,319.564" fill-opacity="0" stroke="#3900FF" stroke-width="5"/>
    <path d="M710.745,387 L764.321,387" fill-opacity="0" stroke="#3900FF" stroke-width="5"/>
    <path d="M359.818,288.784 L400.556,329.872" fill-opacity="0" stroke="#3900FF" stroke-width="5"/>
    <path d="M891.949,329.093 L933.218,289.979" fill-opacity="0" stroke="#3900FF" stroke-width="5"/>
  </g>
</svg>
